# File created by Blade
# Date/Time:  Thu Sep 25 19:04:16 2014
# Frame Rate: 120.000 fps
#------------------------------------------------------
:FULLY-SPECIFIED
:DEGREES
887
root 3.634699 29.902667 -9.900946 100.654052 18.213081 31.595222
Spine 35.412947 32.805991 37.546269
Head -43.401126 7.648508 -23.153490
LeftShoulder -21.840614 35.001843 18.205820
LeftArm -14.166749 35.168496 -72.745100
LeftForeArm 0.873232 -0.000000 11.134640
LeftHand -36.220188 -0.000000 -9.339360
LeftHandThumb1 -26.253704 0.000000 33.147579
RightShoulder -2.426114 33.924302 -46.777654
RightArm 20.019705 8.940863 57.581061
RightForeArm -18.681519 -0.000000 17.758518
RightHand -6.278294 0.000000 -68.513149
RightHandThumb1 -24.326973 -0.000000 -32.862282
LeftUpLeg -101.552702 -17.812553 -1.944208
LeftLeg -3.310122 -0.000000 0.000000
LeftFoot 9.110925 3.223123 -25.821729
LeftToeBase 8.649250 -0.000000 -0.000000
RightUpLeg -105.819219 -58.886898 28.562217
RightLeg -3.823351 -0.000000 0.000000
RightFoot 2.336698 -19.338750 22.661816
RightToeBase 5.106883 -0.000000 -0.000000
888
root 3.634883 29.904752 -9.890714 100.687961 18.204806 31.581511
Spine 35.418570 32.801586 37.447283
Head -44.140585 7.168902 -22.898134
LeftShoulder -22.004087 34.772707 18.158196
LeftArm -14.120433 35.158010 -72.741944
LeftForeArm 0.861696 0.000000 11.157297
LeftHand -36.285098 -0.000000 -9.183475
LeftHandThumb1 -26.253704 0.000000 33.147579
RightShoulder -2.561035 33.994592 -46.755590
RightArm 20.126205 8.797743 57.580962
RightForeArm -18.622287 -0.000000 17.726622
RightHand -6.319021 -0.000000 -68.491712
RightHandThumb1 -24.326973 -0.000000 -32.862282
LeftUpLeg -101.573979 -17.802123 -1.945043
LeftLeg -3.313533 -0.000000 0.000000
LeftFoot 9.151239 3.203229 -25.635881
LeftToeBase 8.427472 -0.000000 -0.000000
RightUpLeg -105.829734 -58.860254 28.560101
RightLeg -3.808213 -0.000000 0.000000
RightFoot 2.324109 -19.343444 22.636139
RightToeBase 5.116900 -0.000000 -0.000000
889
root 3.635181 29.907066 -9.880653 100.713827 18.194969 31.573455
Spine 35.390623 32.793913 37.372700
Head -44.708817 6.710495 -22.635476
LeftShoulder -22.073793 34.648486 18.139018
LeftArm -14.038528 35.137617 -72.763731
LeftForeArm 0.857425 -0.000000 11.173078
LeftHand -36.283141 -0.000000 -9.074585
LeftHandThumb1 -26.253704 0.000000 33.147579
RightShoulder -2.587075 34.063841 -46.702230
RightArm 20.151280 8.700018 57.555682
RightForeArm -18.602115 0.000000 17.703493
RightHand -6.323379 -0.000000 -68.450228
RightHandThumb1 -24.326973 -0.000000 -32.862282
LeftUpLeg -101.590967 -17.789145 -1.943149
LeftLeg -3.301433 -0.000000 0.000000
LeftFoot 9.073244 3.223452 -25.842612
LeftToeBase 8.664281 -0.000000 -0.000000
RightUpLeg -105.877605 -58.832918 28.607674
RightLeg -3.803898 -0.000000 0.000000
RightFoot 2.332547 -19.329914 22.615429
RightToeBase 5.070306 -0.000000 -0.000000
890
root 3.635570 29.908208 -9.872657 100.706981 18.221295 31.565079
Spine 35.286862 32.767603 37.419447
Head -44.822467 6.207482 -22.411678
LeftShoulder -21.882965 34.748106 18.229098
LeftArm -13.913519 35.009280 -72.887552
LeftForeArm 0.851898 -0.000000 11.158058
LeftHand -36.244479 -0.000000 -9.054500
LeftHandThumb1 -26.253704 0.000000 33.147579
RightShoulder -2.330719 33.971239 -46.579557
RightArm 20.140927 8.773299 57.491587
RightForeArm -18.607078 0.000000 17.672738
RightHand -6.293809 -0.000000 -68.382524
RightHandThumb1 -24.326973 -0.000000 -32.862282
LeftUpLeg -101.585374 -17.775552 -1.921311
LeftLeg -3.287783 -0.000000 0.000000
LeftFoot 9.122704 3.215016 -25.639500
LeftToeBase 8.449473 -0.000000 -0.000000
RightUpLeg -105.826099 -58.823183 28.591903
RightLeg -3.797207 -0.000000 0.000000
RightFoot 2.301872 -19.351875 22.643981
RightToeBase 5.102807 -0.000000 -0.000000
891
root 3.634520 29.910028 -9.862493 100.726026 18.238471 31.557019
Spine 35.223086 32.756929 37.407158
Head -45.155058 5.736450 -22.169715
LeftShoulder -21.818969 34.700154 18.250734
LeftArm -13.874608 34.951266 -72.962009
LeftForeArm 0.854355 -0.000000 11.199218
LeftHand -36.300428 0.000000 -9.091930
LeftHandThumb1 -26.253704 0.000000 33.147579
RightShoulder -2.230756 34.014136 -46.527999
RightArm 20.071161 8.763522 57.479934
RightForeArm -18.609640 0.000000 17.664653
RightHand -6.325972 0.000000 -68.289363
RightHandThumb1 -24.326973 -0.000000 -32.862282
LeftUpLeg -101.606886 -17.754208 -1.888177
LeftLeg -3.263970 -0.000000 0.000000
LeftFoot 9.037267 3.217332 -25.853582
LeftToeBase 8.675791 -0.000000 -0.000000
RightUpLeg -105.821946 -58.800441 28.621071
RightLeg -3.802922 -0.000000 0.000000
RightFoot 2.320839 -19.347856 22.575913
RightToeBase 5.038416 -0.000000 -0.000000
892
root 3.633358 29.911847 -9.852034 100.736619 18.255309 31.546242
Spine 35.173828 32.774168 37.438591
Head -45.405275 5.237281 -21.990440
LeftShoulder -21.702593 34.676667 18.305233
LeftArm -13.769554 34.886045 -73.043362
LeftForeArm 0.954674 0.000000 11.154525
LeftHand -36.237407 -0.000000 -8.995615
LeftHandThumb1 -26.253704 0.000000 33.147579
RightShoulder -2.101006 33.991556 -46.482424
RightArm 19.974076 8.804383 57.455911
RightForeArm -18.651585 -0.000000 17.705721
RightHand -6.268942 0.000000 -68.243141
RightHandThumb1 -24.326973 -0.000000 -32.862282
LeftUpLeg -101.614147 -17.732596 -1.861548
LeftLeg -3.253300 -0.000000 0.000000
LeftFoot 9.004945 3.215107 -25.871537
LeftToeBase 8.699753 -0.000000 -0.000000
RightUpLeg -105.799737 -58.778701 28.639586
RightLeg -3.824871 -0.000000 0.000000
RightFoot 2.316141 -19.344950 22.592007
RightToeBase 5.041250 -0.000000 -0.000000
893
root 3.632906 29.913317 -9.842216 100.753062 18.256324 31.544001
Spine 35.135924 32.779852 37.405460
Head -45.777606 4.810283 -21.748969
LeftShoulder -21.666499 34.573857 18.330293
LeftArm -13.728040 34.878914 -73.100666
LeftForeArm 0.923351 -0.000000 11.175003
LeftHand -36.286261 -0.000000 -9.074669
LeftHandThumb1 -26.253704 0.000000 33.147579
RightShoulder -2.056653 34.019294 -46.431665
RightArm 19.912853 8.771009 57.425313
RightForeArm -18.632547 -0.000000 17.720572
RightHand -6.226950 -0.000000 -68.144981
RightHandThumb1 -24.326973 -0.000000 -32.862282
LeftUpLeg -101.623309 -17.724224 -1.841033
LeftLeg -3.251694 -0.000000 0.000000
LeftFoot 9.046417 3.219876 -25.681034
LeftToeBase 8.430484 -0.000000 -0.000000
RightUpLeg -105.791583 -58.769864 28.652181
RightLeg -3.840385 -0.000000 0.000000
RightFoot 2.315830 -19.335138 22.613311
RightToeBase 5.019809 -0.000000 -0.000000
894
root 3.631933 29.914595 -9.833024 100.772238 18.258781 31.552843
Spine 35.102431 32.767458 37.364193
Head -46.191420 4.345160 -21.506334
LeftShoulder -21.663181 34.404061 18.342953
LeftArm -13.767142 34.932569 -73.183304
LeftForeArm 0.866337 -0.000000 11.189257
LeftHand -36.248688 -0.000000 -9.081755
LeftHandThumb1 -26.253704 0.000000 33.147579
RightShoulder -2.030161 34.073375 -46.401561
RightArm 19.852780 8.730681 57.410732
RightForeArm -18.597638 -0.000000 17.739543
RightHand -6.246360 0.000000 -68.040656
RightHandThumb1 -24.326973 -0.000000 -32.862282
LeftUpLeg -101.630693 -17.722837 -1.823215
LeftLeg -3.242150 -0.000000 0.000000
LeftFoot 8.969371 3.239479 -25.873641
LeftToeBase 8.686028 -0.000000 -0.000000
RightUpLeg -105.847593 -58.762790 28.724288
RightLeg -3.830076 -0.000000 0.000000
RightFoot 2.297667 -19.316213 22.741376
RightToeBase 4.860086 -0.000000 -0.000000
895
root 3.631362 29.916322 -9.824278 100.790041 18.250615 31.558247
Spine 35.037713 32.774183 37.317180
Head -46.494544 3.887693 -21.210193
LeftShoulder -21.653888 34.466540 18.342156
LeftArm -13.562561 34.936455 -73.173888
LeftForeArm 0.883794 -0.000000 11.226706
LeftHand -36.265553 0.000000 -8.910027
LeftHandThumb1 -26.253704 0.000000 33.147579
RightShoulder -1.940566 34.053976 -46.303184
RightArm 19.840273 8.706177 57.348595
RightForeArm -18.541000 0.000000 17.717221
RightHand -6.229279 -0.000000 -67.983264
RightHandThumb1 -24.326973 -0.000000 -32.862282
LeftUpLeg -101.624970 -17.728412 -1.825047
LeftLeg -3.265273 -0.000000 0.000000
LeftFoot 9.001388 3.229970 -25.795082
LeftToeBase 8.611841 -0.000000 -0.000000
RightUpLeg -105.867615 -58.754617 28.748771
RightLeg -3.834239 -0.000000 0.000000
RightFoot 2.280945 -19.302380 22.635355
RightToeBase 5.031701 -0.000000 -0.000000
896
root 3.631852 29.917297 -9.816183 100.801108 18.233816 31.575214
Spine 34.996282 32.771455 37.269285
Head -46.822772 3.478009 -20.922359
LeftShoulder -21.647067 34.434732 18.336007
LeftArm -13.459641 34.935677 -73.168670
LeftForeArm 0.916914 -0.000000 11.272823
LeftHand -36.169865 -0.000000 -9.037233
LeftHandThumb1 -26.253704 0.000000 33.147579
RightShoulder -1.917363 34.032843 -46.229490
RightArm 19.875915 8.646131 57.294183
RightForeArm -18.485408 -0.000000 17.671968
RightHand -6.192311 -0.000000 -67.963387
RightHandThumb1 -24.326973 -0.000000 -32.862282
LeftUpLeg -101.615028 -17.738841 -1.814886
LeftLeg -3.281256 -0.000000 0.000000
LeftFoot 8.993579 3.270233 -25.776301
LeftToeBase 8.577928 -0.000000 -0.000000
RightUpLeg -105.891759 -58.766256 28.769754
RightLeg -3.834014 -0.000000 0.000000
RightFoot 2.279569 -19.296502 22.630357
RightToeBase 5.015531 -0.000000 -0.000000
